<svg width="24" height="24" viewBox="0 0 24 24" fill="none" xmlns="http://www.w3.org/2000/svg">
<path d="M7 2H17C17.5304 2 18.0391 2.21071 18.4142 2.58579C18.7893 2.96086 19 3.46957 19 4V20C19 20.5304 18.7893 21.0391 18.4142 21.4142C18.0391 21.7893 17.5304 22 17 22H7C6.46957 22 5.96086 21.7893 5.58579 21.4142C5.21071 21.0391 5 20.5304 5 20V4C5 3.46957 5.21071 2.96086 5.58579 2.58579C5.96086 2.21071 6.46957 2 7 2ZM7 4V8H17V4H7ZM7 10V12H9V10H7ZM11 10V12H13V10H11ZM15 10V12H17V10H15ZM7 14V16H9V14H7ZM11 14V16H13V14H11ZM15 14V16H17V14H15ZM7 18V20H9V18H7ZM11 18V20H13V18H11ZM15 18V20H17V18H15Z" fill="url(#paint0_linear_273_151)"/>
<circle cx="18" cy="18" r="4" fill="white"/>
<path d="M17.6875 16.2696C17.2975 16.3762 17.0625 16.6758 17.0625 16.9583C17.0625 17.2408 17.2975 17.5404 17.6875 17.6467V16.2696ZM18.3125 18.3533V19.73C18.7025 19.6237 18.9375 19.3242 18.9375 19.0417C18.9375 18.7592 18.7025 18.4596 18.3125 18.3533Z" fill="url(#paint1_linear_273_151)"/>
<path fill-rule="evenodd" clip-rule="evenodd" d="M22.1667 18C22.1667 20.3012 20.3013 22.1667 18 22.1667C15.6988 22.1667 13.8334 20.3012 13.8334 18C13.8334 15.6987 15.6988 13.8333 18 13.8333C20.3013 13.8333 22.1667 15.6987 22.1667 18ZM18 15.1875C18.0829 15.1875 18.1624 15.2204 18.221 15.279C18.2796 15.3376 18.3125 15.4171 18.3125 15.5V15.6321C18.9917 15.7537 19.5625 16.2642 19.5625 16.9583C19.5625 17.0412 19.5296 17.1207 19.471 17.1793C19.4124 17.2379 19.3329 17.2708 19.25 17.2708C19.1672 17.2708 19.0877 17.2379 19.0291 17.1793C18.9705 17.1207 18.9375 17.0412 18.9375 16.9583C18.9375 16.6758 18.7025 16.3762 18.3125 16.2696V17.7154C18.9917 17.8371 19.5625 18.3475 19.5625 19.0417C19.5625 19.7358 18.9917 20.2462 18.3125 20.3679V20.5C18.3125 20.5829 18.2796 20.6624 18.221 20.721C18.1624 20.7796 18.0829 20.8125 18 20.8125C17.9172 20.8125 17.8377 20.7796 17.7791 20.721C17.7205 20.6624 17.6875 20.5829 17.6875 20.5V20.3679C17.0084 20.2462 16.4375 19.7358 16.4375 19.0417C16.4375 18.9588 16.4705 18.8793 16.5291 18.8207C16.5877 18.7621 16.6672 18.7292 16.75 18.7292C16.8329 18.7292 16.9124 18.7621 16.971 18.8207C17.0296 18.8793 17.0625 18.9588 17.0625 19.0417C17.0625 19.3242 17.2975 19.6237 17.6875 19.73V18.2846C17.0084 18.1629 16.4375 17.6525 16.4375 16.9583C16.4375 16.2642 17.0084 15.7537 17.6875 15.6321V15.5C17.6875 15.4171 17.7205 15.3376 17.7791 15.279C17.8377 15.2204 17.9172 15.1875 18 15.1875Z" fill="url(#paint2_linear_273_151)"/>
<defs>
<linearGradient id="paint0_linear_273_151" x1="12" y1="2" x2="12" y2="22" gradientUnits="userSpaceOnUse">
<stop stop-color="#33A05F"/>
<stop offset="1" stop-color="#167C4B"/>
</linearGradient>
<linearGradient id="paint1_linear_273_151" x1="18" y1="16.2696" x2="18" y2="19.73" gradientUnits="userSpaceOnUse">
<stop stop-color="#33A05F"/>
<stop offset="1" stop-color="#167C4B"/>
</linearGradient>
<linearGradient id="paint2_linear_273_151" x1="18" y1="13.8333" x2="18" y2="22.1667" gradientUnits="userSpaceOnUse">
<stop stop-color="#33A05F"/>
<stop offset="1" stop-color="#167C4B"/>
</linearGradient>
</defs>
</svg>
