<svg width="24" height="24" viewBox="0 0 24 24" fill="none" xmlns="http://www.w3.org/2000/svg">
<path d="M11.01 1.75C11.01 2.01522 11.1154 2.26957 11.3029 2.45711C11.4904 2.64464 11.7448 2.75 12.01 2.75C12.2752 2.75 12.5296 2.64464 12.7171 2.45711C12.9047 2.26957 13.01 2.01522 13.01 1.75C13.01 1.48478 12.9047 1.23043 12.7171 1.04289C12.5296 0.855357 12.2752 0.75 12.01 0.75C11.7448 0.75 11.4904 0.855357 11.3029 1.04289C11.1154 1.23043 11.01 1.48478 11.01 1.75ZM12 3.25C11.5102 3.24616 11.036 3.42222 10.6673 3.74479C10.2987 4.06735 10.0612 4.51399 10 5C9.99427 5.03498 9.99574 5.07077 10.0043 5.10517C10.0129 5.13956 10.0285 5.17183 10.05 5.2C10.0732 5.2279 10.1023 5.2504 10.1351 5.26594C10.1679 5.28149 10.2037 5.28969 10.24 5.29H13.71C13.7463 5.28969 13.7821 5.28149 13.8149 5.26594C13.8477 5.2504 13.8768 5.2279 13.9 5.2C13.93 5.17574 13.9544 5.14534 13.9717 5.11084C13.9889 5.07634 13.9986 5.03855 14 5C13.9388 4.51399 13.7013 4.06735 13.3327 3.74479C12.9641 3.42222 12.4898 3.24616 12 3.25ZM20.51 11.75C20.51 12.0152 20.6154 12.2696 20.8029 12.4571C20.9904 12.6446 21.2448 12.75 21.51 12.75C21.7752 12.75 22.0296 12.6446 22.2171 12.4571C22.4047 12.2696 22.51 12.0152 22.51 11.75C22.51 11.4848 22.4047 11.2304 22.2171 11.0429C22.0296 10.8554 21.7752 10.75 21.51 10.75C21.2448 10.75 20.9904 10.8554 20.8029 11.0429C20.6154 11.2304 20.51 11.4848 20.51 11.75ZM19.53 15C19.5168 15.0317 19.51 15.0657 19.51 15.1C19.51 15.1343 19.5168 15.1683 19.53 15.2C19.5532 15.2279 19.5823 15.2504 19.6151 15.2659C19.6479 15.2815 19.6837 15.2897 19.72 15.29H23.19C23.2263 15.2897 23.2621 15.2815 23.2949 15.2659C23.3277 15.2504 23.3568 15.2279 23.38 15.2C23.4028 15.1723 23.4198 15.1404 23.4301 15.106C23.4404 15.0717 23.4438 15.0357 23.44 15C23.44 14.4696 23.2293 13.9609 22.8542 13.5858C22.4792 13.2107 21.9704 13 21.44 13C20.9096 13 20.4009 13.2107 20.0258 13.5858C19.6507 13.9609 19.44 14.4696 19.44 15H19.53ZM11.01 19.75C11.01 20.0152 11.1154 20.2696 11.3029 20.4571C11.4904 20.6446 11.7448 20.75 12.01 20.75C12.2752 20.75 12.5296 20.6446 12.7171 20.4571C12.9047 20.2696 13.01 20.0152 13.01 19.75C13.01 19.4848 12.9047 19.2304 12.7171 19.0429C12.5296 18.8554 12.2752 18.75 12.01 18.75C11.7448 18.75 11.4904 18.8554 11.3029 19.0429C11.1154 19.2304 11.01 19.4848 11.01 19.75ZM12 21.25C11.5102 21.2462 11.036 21.4222 10.6673 21.7448C10.2987 22.0674 10.0612 22.514 10 23C9.99427 23.035 9.99574 23.0708 10.0043 23.1052C10.0129 23.1396 10.0285 23.1718 10.05 23.2C10.0732 23.2279 10.1023 23.2504 10.1351 23.2659C10.1679 23.2815 10.2037 23.2897 10.24 23.29H13.71C13.7463 23.2897 13.7821 23.2815 13.8149 23.2659C13.8477 23.2504 13.8768 23.2279 13.9 23.2C13.93 23.1757 13.9544 23.1453 13.9717 23.1108C13.9889 23.0763 13.9986 23.0385 14 23C13.9388 22.514 13.7013 22.0674 13.3327 21.7448C12.9641 21.4222 12.4898 21.2462 12 21.25ZM1.51001 11.75C1.51001 12.0152 1.61537 12.2696 1.8029 12.4571C1.99044 12.6446 2.24479 12.75 2.51001 12.75C2.77523 12.75 3.02958 12.6446 3.21712 12.4571C3.40465 12.2696 3.51001 12.0152 3.51001 11.75C3.51001 11.4848 3.40465 11.2304 3.21712 11.0429C3.02958 10.8554 2.77523 10.75 2.51001 10.75C2.24479 10.75 1.99044 10.8554 1.8029 11.0429C1.61537 11.2304 1.51001 11.4848 1.51001 11.75ZM2.51001 13.25C2.02362 13.251 1.55428 13.4293 1.18983 13.7514C0.825382 14.0735 0.590808 14.5174 0.53001 15C0.516807 15.0317 0.51001 15.0657 0.51001 15.1C0.51001 15.1343 0.516807 15.1683 0.53001 15.2C0.553245 15.2279 0.582278 15.2504 0.615089 15.2659C0.647901 15.2815 0.683704 15.2897 0.72001 15.29H4.24001C4.27631 15.2897 4.31212 15.2815 4.34493 15.2659C4.37774 15.2504 4.40677 15.2279 4.43001 15.2C4.45279 15.1723 4.46982 15.1404 4.48013 15.106C4.49043 15.0717 4.49379 15.0357 4.49001 15C4.42921 14.5174 4.19464 14.0735 3.83019 13.7514C3.46574 13.4293 2.9964 13.251 2.51001 13.25ZM16.34 8C16.3784 8.09019 16.4425 8.1671 16.5243 8.22116C16.6061 8.27522 16.702 8.30404 16.8 8.30404C16.898 8.30404 16.9939 8.27522 17.0757 8.22116C17.1575 8.1671 17.2216 8.09019 17.26 8L17.37 7.78C17.3851 7.74103 17.411 7.70716 17.4446 7.68237C17.4783 7.65757 17.5183 7.64288 17.56 7.64C17.5996 7.63124 17.6408 7.6331 17.6794 7.6454C17.7181 7.65769 17.7528 7.67998 17.78 7.71C18.2461 8.17696 18.6556 8.69721 19 9.26C19.086 9.413 19.2107 9.54068 19.3617 9.6302C19.5127 9.71972 19.6845 9.76794 19.86 9.77C20.0361 9.76817 20.2086 9.71988 20.36 9.63C20.5887 9.49808 20.756 9.28105 20.8253 9.02626C20.8946 8.77148 20.8604 8.49962 20.73 8.27C20.1554 7.29806 19.4219 6.42935 18.56 5.7C18.5182 5.6637 18.4896 5.61455 18.4788 5.56025C18.4679 5.50595 18.4754 5.44959 18.5 5.4L18.98 4.4C19.0213 4.31041 19.0357 4.21076 19.0215 4.11314C19.0073 4.01552 18.9651 3.92412 18.9 3.85C18.8329 3.77737 18.7458 3.72626 18.6497 3.70312C18.5536 3.67998 18.4528 3.68586 18.36 3.72L15.7 4.72C15.5752 4.76532 15.473 4.85754 15.4151 4.97706C15.3572 5.09658 15.3482 5.23396 15.39 5.36L16.34 8ZM3.48001 9.21C3.4897 9.34129 3.55079 9.46347 3.65001 9.55C3.74551 9.6369 3.87093 9.68349 4.00001 9.68L6.83001 9.5C6.92916 9.49459 7.02433 9.45918 7.10291 9.39846C7.18149 9.33774 7.23976 9.25458 7.27001 9.16C7.30357 9.06793 7.30814 8.96779 7.28311 8.87305C7.25808 8.7783 7.20466 8.69349 7.13001 8.63L6.37001 8C6.34287 7.9783 6.32077 7.95097 6.30523 7.91989C6.28969 7.88881 6.28109 7.85473 6.28001 7.82C6.28046 7.78614 6.28778 7.75273 6.30153 7.72179C6.31529 7.69085 6.33518 7.66302 6.36001 7.64C6.96899 7.01183 7.67458 6.48517 8.45001 6.08C8.5717 6.0241 8.68093 5.94433 8.77121 5.84542C8.86149 5.74651 8.93098 5.63048 8.97556 5.5042C9.02015 5.37792 9.03891 5.24398 9.03075 5.11031C9.02258 4.97664 8.98765 4.84598 8.92803 4.72607C8.86841 4.60615 8.78531 4.49944 8.68367 4.41225C8.58202 4.32506 8.4639 4.25918 8.33631 4.21851C8.20872 4.17784 8.07426 4.16321 7.94091 4.17549C7.80755 4.18777 7.67803 4.22671 7.56001 4.29C6.544 4.79838 5.62105 5.47454 4.83001 6.29C4.78378 6.33287 4.72306 6.3567 4.66001 6.3567C4.59696 6.3567 4.53624 6.33287 4.49001 6.29L4.13001 6C4.05547 5.93537 3.96347 5.89424 3.8656 5.88178C3.76773 5.86933 3.66836 5.8861 3.58001 5.93C3.49192 5.97437 3.41859 6.04332 3.36889 6.12852C3.3192 6.21371 3.29527 6.31148 3.30001 6.41L3.48001 9.21ZM7.70001 18.41C7.68275 18.3075 7.63399 18.213 7.56051 18.1395C7.48703 18.066 7.39248 18.0173 7.29001 18C7.19112 17.9857 7.09023 18.002 7.00086 18.0467C6.91149 18.0914 6.83792 18.1623 6.79001 18.25L6.56001 18.63C6.54091 18.6622 6.51482 18.6897 6.48366 18.7105C6.45251 18.7312 6.41708 18.7448 6.38001 18.75C6.34201 18.7545 6.30349 18.7506 6.26719 18.7385C6.23089 18.7264 6.19771 18.7064 6.17001 18.68C5.63812 18.1098 5.19027 17.4667 4.84001 16.77C4.72189 16.5327 4.51441 16.352 4.26315 16.2677C4.01188 16.1833 3.7374 16.2021 3.50001 16.32C3.26273 16.4381 3.08205 16.6456 2.99767 16.8969C2.91329 17.1481 2.93212 17.4226 3.05001 17.66C3.59071 18.7452 4.32239 19.7241 5.21001 20.55C5.24489 20.5941 5.26386 20.6487 5.26386 20.705C5.26386 20.7613 5.24489 20.8159 5.21001 20.86L4.72001 21.7C4.66625 21.7816 4.63759 21.8772 4.63759 21.975C4.63759 22.0728 4.66625 22.1684 4.72001 22.25C4.77999 22.3274 4.86063 22.3863 4.95262 22.42C5.04462 22.4536 5.14424 22.4605 5.24001 22.44L7.98001 21.72C8.04376 21.7037 8.10366 21.6749 8.15628 21.6354C8.2089 21.5959 8.2532 21.5464 8.28665 21.4897C8.32009 21.4331 8.34202 21.3704 8.35118 21.3052C8.36034 21.24 8.35654 21.1737 8.34001 21.11L7.70001 18.41ZM20.53 17.24C20.5203 17.1753 20.4978 17.1131 20.4637 17.0573C20.4296 17.0014 20.3847 16.9529 20.3315 16.9147C20.2784 16.8765 20.2181 16.8493 20.1543 16.8348C20.0905 16.8202 20.0245 16.8186 19.96 16.83L17.16 17.26C17.0624 17.2733 16.9711 17.3157 16.8979 17.3817C16.8248 17.4477 16.7732 17.5343 16.75 17.63C16.7269 17.7258 16.7327 17.8262 16.7665 17.9187C16.8003 18.0112 16.8606 18.0917 16.94 18.15L17.56 18.6C17.6142 18.6499 17.6496 18.717 17.66 18.79C17.6595 18.8614 17.6308 18.9297 17.58 18.98C16.9917 19.5604 16.3171 20.0462 15.58 20.42C15.3827 20.5208 15.2244 20.6842 15.13 20.8847C15.0357 21.0851 15.0105 21.3112 15.0586 21.5275C15.1067 21.7438 15.2252 21.938 15.3956 22.0796C15.566 22.2213 15.7786 22.3023 16 22.31C16.1558 22.3122 16.3098 22.2779 16.45 22.21C17.4969 21.6843 18.4444 20.9805 19.25 20.13C19.2956 20.0899 19.3543 20.0678 19.415 20.0678C19.4757 20.0678 19.5344 20.0899 19.58 20.13L20.16 20.55C20.2438 20.6129 20.3453 20.6479 20.45 20.65C20.5424 20.6479 20.6324 20.6202 20.71 20.57C20.8199 20.5272 20.9103 20.4455 20.9638 20.3403C21.0173 20.2352 21.0302 20.114 21 20L20.53 17.24ZM7.54001 15.51C7.5042 15.613 7.49369 15.7231 7.50935 15.831C7.52502 15.9389 7.5664 16.0414 7.63001 16.13C7.69253 16.2173 7.77513 16.2884 7.87085 16.3371C7.96657 16.3858 8.0726 16.4108 8.18001 16.41H15.83C15.9374 16.4108 16.0434 16.3858 16.1392 16.3371C16.2349 16.2884 16.3175 16.2173 16.38 16.13C16.4436 16.0414 16.485 15.9389 16.5007 15.831C16.5163 15.7231 16.5058 15.613 16.47 15.51C16.1463 14.584 15.5426 13.7815 14.7427 13.2138C13.9427 12.646 12.986 12.341 12.005 12.341C11.024 12.341 10.0673 12.646 9.26736 13.2138C8.46739 13.7815 7.86375 14.584 7.54001 15.51ZM9.97001 9.62C9.97001 10.161 10.1849 10.6799 10.5675 11.0625C10.9501 11.4451 11.469 11.66 12.01 11.66C12.5511 11.66 13.0699 11.4451 13.4525 11.0625C13.8351 10.6799 14.05 10.161 14.05 9.62C14.05 9.07896 13.8351 8.56008 13.4525 8.1775C13.0699 7.79493 12.5511 7.58 12.01 7.58C11.469 7.58 10.9501 7.79493 10.5675 8.1775C10.1849 8.56008 9.97001 9.07896 9.97001 9.62Z" fill="url(#paint0_linear_273_143)"/>
<defs>
<linearGradient id="paint0_linear_273_143" x1="11.9758" y1="0.75" x2="11.9758" y2="23.29" gradientUnits="userSpaceOnUse">
<stop stop-color="#33A05F"/>
<stop offset="1" stop-color="#167C4B"/>
</linearGradient>
</defs>
</svg>
