<svg width="24" height="24" viewBox="0 0 24 24" fill="none" xmlns="http://www.w3.org/2000/svg">
<path fill-rule="evenodd" clip-rule="evenodd" d="M12 0.75C7.776 0.75 5.208 0.863 3.7155 0.971C2.2815 1.0755 1.1225 2.1065 0.9585 3.5785C0.847 4.578 0.75 6.018 0.75 8C0.75 9.982 0.847 11.422 0.9585 12.4215C1.1225 13.8935 2.2815 14.9245 3.7155 15.029C4.1935 15.0635 4.782 15.099 5.5 15.1305C5.5 15.0162 5.513 14.9023 5.539 14.789C5.6605 14.267 5.7885 13.8125 5.907 13.434C6.2585 12.31 7.13 11.399 8.307 11.072C7.90342 10.4924 7.64194 9.82587 7.54372 9.12644C7.4455 8.427 7.51331 7.71427 7.74164 7.0459C7.96997 6.37752 8.35243 5.77229 8.85806 5.27914C9.3637 4.786 9.97831 4.4188 10.6522 4.20725C11.3261 3.99571 12.0403 3.94575 12.737 4.06143C13.4338 4.17711 14.0935 4.45518 14.6629 4.87313C15.2322 5.29109 15.6952 5.83719 16.0144 6.46727C16.3335 7.09735 16.4999 7.7937 16.5 8.5C16.5014 9.41985 16.2197 10.3178 15.693 11.072C16.87 11.3995 17.7415 12.31 18.093 13.4335C18.2115 13.812 18.3395 14.267 18.4605 14.7885C18.4872 14.9022 18.5003 15.0162 18.5 15.1305C19.218 15.0985 19.8065 15.0635 20.2845 15.029C21.7185 14.9245 22.8775 13.8935 23.0415 12.4215C23.153 11.422 23.25 9.982 23.25 8C23.25 6.018 23.153 4.578 23.0415 3.5785C22.8775 2.1065 21.7185 1.0755 20.2845 0.971C18.792 0.863 16.2245 0.75 12 0.75ZM12 11.5C12.394 11.5 12.7841 11.4224 13.1481 11.2716C13.512 11.1209 13.8427 10.8999 14.1213 10.6213C14.3999 10.3427 14.6209 10.012 14.7716 9.64805C14.9224 9.28407 15 8.89397 15 8.5C15 8.10603 14.9224 7.71593 14.7716 7.35195C14.6209 6.98797 14.3999 6.65726 14.1213 6.37868C13.8427 6.1001 13.512 5.87913 13.1481 5.72836C12.7841 5.5776 12.394 5.5 12 5.5C11.2044 5.5 10.4413 5.81607 9.87868 6.37868C9.31607 6.94129 9 7.70435 9 8.5C9 9.29565 9.31607 10.0587 9.87868 10.6213C10.4413 11.1839 11.2044 11.5 12 11.5ZM8.9195 12.4705C9.6075 12.356 10.618 12.25 12 12.25C13.382 12.25 14.3925 12.356 15.0805 12.4705C15.843 12.5975 16.4305 13.1435 16.661 13.881C16.7695 14.2275 16.8875 14.646 16.9995 15.129H12.75V14C12.75 13.8011 12.671 13.6103 12.5303 13.4697C12.3897 13.329 12.1989 13.25 12 13.25C11.8011 13.25 11.6103 13.329 11.4697 13.4697C11.329 13.6103 11.25 13.8011 11.25 14V15.129H7C7.1125 14.6465 7.23 14.2275 7.3385 13.8815C7.5695 13.1435 8.1565 12.5975 8.9195 12.4705ZM2.801 18.009C2.7705 18.215 2.75 18.461 2.75 18.75C2.75 19.039 2.77 19.285 2.801 19.491C2.9215 20.3105 3.6455 20.691 4.26 20.701L4.727 20.708C4.848 21.2105 4.957 21.637 5.043 21.965C5.14077 22.3343 5.35821 22.6607 5.66129 22.8932C5.96438 23.1258 6.336 23.2512 6.718 23.25H17.2815C17.6636 23.2513 18.0353 23.1259 18.3385 22.8934C18.6417 22.6609 18.8592 22.3344 18.957 21.965C19.0435 21.637 19.152 21.2105 19.273 20.708L19.74 20.701C20.355 20.691 21.0785 20.3105 21.199 19.491C21.2295 19.285 21.25 19.039 21.25 18.75C21.25 18.461 21.23 18.215 21.199 18.009C21.0785 17.1895 20.3545 16.809 19.74 16.799C18.6785 16.782 16.1485 16.75 12 16.75C7.8515 16.75 5.322 16.782 4.26 16.799C3.645 16.809 2.9215 17.1895 2.801 18.009Z" fill="url(#paint0_linear_273_146)"/>
<defs>
<linearGradient id="paint0_linear_273_146" x1="12" y1="0.75" x2="12" y2="23.25" gradientUnits="userSpaceOnUse">
<stop stop-color="#33A05F"/>
<stop offset="1" stop-color="#167C4B"/>
</linearGradient>
</defs>
</svg>
