<svg width="24" height="24" viewBox="0 0 24 24" fill="none" xmlns="http://www.w3.org/2000/svg">
<path d="M14.82 4C14.41 2.84 13.31 2 12 2C10.69 2 9.6 2.84 9.18 4H2V6H4.56L2.07 12.65C2.03 12.76 2.01 12.88 2.01 13C2.01 15.21 3.8 17 6.01 17C8.22 17 10.01 15.21 10.01 13C10.01 12.88 9.99 12.76 9.95 12.65L7.46 6H9.2C9.5 6.85 10.17 7.51 11.02 7.82V20H2V22H22V20H13V7.82C13.85 7.52 14.51 6.85 14.82 6H16.56L14.07 12.65C14.03 12.76 14.01 12.88 14.01 13C14.01 15.21 15.8 17 18.01 17C20.22 17 22.01 15.21 22.01 13C22.01 12.88 21.99 12.76 21.95 12.65L19.46 6H22.02V4H14.84H14.82ZM4.07 13L6 7.85L7.93 13H4.07ZM16.07 13L18 7.85L19.93 13H16.07ZM12 6C11.45 6 11 5.55 11 5C11 4.45 11.45 4 12 4C12.55 4 13 4.45 13 5C13 5.55 12.55 6 12 6Z" fill="url(#paint0_linear_273_140)"/>
<defs>
<linearGradient id="paint0_linear_273_140" x1="12.01" y1="2" x2="12.01" y2="22" gradientUnits="userSpaceOnUse">
<stop stop-color="#33A05F"/>
<stop offset="1" stop-color="#167C4B"/>
</linearGradient>
</defs>
</svg>
